<?xml version="1.0" encoding="utf-8"?>
<!-- Generator: Adobe Illustrator 23.0.6, SVG Export Plug-In . SVG Version: 6.00 Build 0)  -->
<svg version="1.1" id="Layer_1" xmlns="http://www.w3.org/2000/svg" xmlns:xlink="http://www.w3.org/1999/xlink" x="0px" y="0px"
	 viewBox="0 0 340.6 44" style="enable-background:new 0 0 340.6 44;" xml:space="preserve">
<style type="text/css">
	.st0{fill:#FFFFFF;}
</style>
<g>
	<path class="st0" d="M21.8,43.8c-3.3,0-6.3-0.6-8.9-1.9C10.2,40.7,7.9,39,6,37s-3.4-4.4-4.4-7S0,24.6,0,21.8s0.5-5.6,1.6-8.2
		s2.6-4.9,4.6-6.9s4.3-3.6,7-4.8s5.6-1.8,8.8-1.8c3.3,0,6.3,0.6,8.9,1.9c2.7,1.3,5,2.9,6.9,5c1.9,2.1,3.4,4.4,4.4,7s1.5,5.3,1.5,8.1
		s-0.5,5.6-1.6,8.2s-2.6,4.9-4.5,6.9s-4.3,3.6-6.9,4.8C27.9,43.2,25,43.8,21.8,43.8z M12,22c0,1.5,0.2,2.9,0.6,4.2s1,2.6,1.8,3.6
		c0.8,1.1,1.8,1.9,3.1,2.6s2.7,1,4.4,1c1.7,0,3.2-0.3,4.4-1c1.3-0.7,2.3-1.5,3.1-2.6c0.8-1.1,1.4-2.3,1.8-3.7s0.6-2.8,0.6-4.2
		c0-1.5-0.2-2.9-0.6-4.2s-1-2.5-1.9-3.6c-0.8-1-1.9-1.9-3.1-2.5s-2.7-0.9-4.3-0.9c-1.7,0-3.2,0.3-4.4,1c-1.2,0.6-2.3,1.5-3.1,2.6
		s-1.4,2.3-1.8,3.6S12,20.6,12,22z"/>
	<path class="st0" d="M78,39.9c-3.1,2.6-6.6,3.9-10.6,3.9c-2.8,0-5.5-0.5-8-1.5s-4.8-2.4-6.7-4.3s-3.4-4.2-4.5-7s-1.7-5.9-1.7-9.4
		c0-3,0.6-5.9,1.7-8.5c1.1-2.6,2.7-4.9,4.7-6.8s4.3-3.4,7-4.6C62.6,0.6,65.5,0,68.6,0c1.9,0,3.8,0.2,5.6,0.6C76,1,77.6,1.7,79.1,2.5
		s2.9,1.8,4.1,3s2.2,2.5,3,3.9l-8.8,6.7c-0.8-1.7-2.1-3.1-3.8-4.1c-1.7-1-3.5-1.5-5.4-1.5c-1.4,0-2.7,0.3-3.9,0.8
		c-1.2,0.6-2.2,1.4-3,2.4s-1.5,2.2-2,3.6s-0.7,2.9-0.7,4.6s0.2,3.2,0.7,4.6s1.2,2.6,2,3.6c0.9,1,1.9,1.8,3.1,2.3
		c1.2,0.5,2.6,0.8,4.1,0.8c3.4,0,6.5-1.4,9.1-4.2h-7.5v-8.5h17.7v22.9H78V39.9z"/>
	<path class="st0" d="M113.1,43.8c-3.3,0-6.3-0.6-8.9-1.9c-2.7-1.3-5-2.9-6.9-4.9s-3.4-4.4-4.4-7c-1.1-2.6-1.6-5.3-1.6-8.1
		s0.5-5.6,1.6-8.2s2.6-4.9,4.6-6.9s4.3-3.6,7-4.8s5.6-1.8,8.8-1.8c3.3,0,6.3,0.6,8.9,1.9c2.7,1.3,5,2.9,6.9,5s3.4,4.4,4.4,7
		s1.5,5.3,1.5,8.1s-0.5,5.6-1.6,8.2s-2.6,4.9-4.5,6.9c-1.9,2-4.3,3.6-6.9,4.8C119.2,43.2,116.3,43.8,113.1,43.8z M103.3,22
		c0,1.5,0.2,2.9,0.6,4.2s1,2.6,1.8,3.6c0.8,1.1,1.8,1.9,3.1,2.6c1.2,0.6,2.7,1,4.4,1s3.2-0.3,4.4-1c1.3-0.7,2.3-1.5,3.1-2.6
		c0.8-1.1,1.4-2.3,1.8-3.7c0.4-1.4,0.6-2.8,0.6-4.2c0-1.5-0.2-2.9-0.6-4.2s-1-2.5-1.9-3.6c-0.8-1-1.9-1.9-3.1-2.5s-2.7-0.9-4.3-0.9
		c-1.7,0-3.2,0.3-4.4,1c-1.2,0.6-2.3,1.5-3.1,2.6c-0.8,1.1-1.4,2.3-1.8,3.6C103.5,19.2,103.3,20.6,103.3,22z"/>
	<path class="st0" d="M151.9,22.3v21.2h-11.8V0.4h9.2l17.3,21.9V0.4h11.8v43.1H169L151.9,22.3z"/>
	<path class="st0" d="M197.7,22.3v21.2h-11.8V0.4h9.2l17.3,21.9V0.4h11.8v43.1h-9.4L197.7,22.3z"/>
	<path class="st0" d="M242.8,0.4h10.8l14.9,43.1h-12l-2.6-8.4h-11.5l-2.5,8.4h-12.1L242.8,0.4z M252,27.1l-3.8-13.4l-4,13.4H252z"/>
	<path class="st0" d="M276.5,0.4l7.7,18.6L292,0.4h12.9L290,29.2v14.3h-11.8V29.1L263.6,0.4H276.5z"/>
	<path class="st0" d="M314.9,0.4h10.8l14.9,43.1h-12L326,35h-11.5l-2.5,8.4h-12.1L314.9,0.4z M324.2,27.1l-3.8-13.4l-4,13.4H324.2z"
		/>
</g>
</svg>
