<?xml version="1.0" encoding="utf-8"?>
<!-- Generator: Adobe Illustrator 23.0.6, SVG Export Plug-In . SVG Version: 6.00 Build 0)  -->
<svg version="1.1" id="Layer_1" xmlns="http://www.w3.org/2000/svg" xmlns:xlink="http://www.w3.org/1999/xlink" x="0px" y="0px"
	 viewBox="0 0 710.5 44" style="enable-background:new 0 0 710.5 44;" xml:space="preserve">
<style type="text/css">
	.st0{fill:#FFFFFF;}
</style>
<g>
	<path class="st0" d="M21.8,43.8c-3.3,0-6.3-0.6-8.9-1.9C10.2,40.7,7.9,39,6,37s-3.4-4.4-4.4-7S0,24.6,0,21.8c0-2.8,0.5-5.6,1.6-8.2
		s2.6-4.9,4.6-6.9c2-2,4.3-3.6,7-4.8s5.6-1.8,8.8-1.8c3.3,0,6.3,0.6,8.9,1.9c2.7,1.3,5,2.9,6.9,5c1.9,2.1,3.4,4.4,4.4,7
		s1.5,5.3,1.5,8.1c0,2.8-0.5,5.6-1.6,8.2c-1.1,2.6-2.6,4.9-4.5,6.9c-1.9,2-4.3,3.6-6.9,4.8C27.9,43.2,25,43.8,21.8,43.8z M12,22
		c0,1.5,0.2,2.9,0.6,4.2s1,2.6,1.8,3.6c0.8,1.1,1.8,1.9,3.1,2.6s2.7,1,4.4,1c1.7,0,3.2-0.3,4.4-1c1.3-0.7,2.3-1.5,3.1-2.6
		c0.8-1.1,1.4-2.3,1.8-3.7s0.6-2.8,0.6-4.2c0-1.5-0.2-2.9-0.6-4.2s-1-2.5-1.9-3.6c-0.8-1-1.9-1.9-3.1-2.5c-1.2-0.6-2.7-0.9-4.3-0.9
		c-1.7,0-3.2,0.3-4.4,1c-1.2,0.6-2.3,1.5-3.1,2.6c-0.8,1.1-1.4,2.3-1.8,3.6S12,20.6,12,22z"/>
	<path class="st0" d="M78,39.9c-3.1,2.6-6.6,3.9-10.6,3.9c-2.8,0-5.5-0.5-8-1.5c-2.5-1-4.8-2.4-6.7-4.3s-3.4-4.2-4.5-7
		c-1.1-2.8-1.7-5.9-1.7-9.4c0-3,0.6-5.9,1.7-8.5c1.1-2.6,2.7-4.9,4.7-6.8c2-1.9,4.3-3.4,7-4.6c2.7-1.1,5.6-1.7,8.7-1.7
		c1.9,0,3.8,0.2,5.6,0.6c1.8,0.4,3.4,1.1,4.9,1.9c1.5,0.8,2.9,1.8,4.1,3s2.2,2.5,3,3.9l-8.8,6.7c-0.8-1.7-2.1-3.1-3.8-4.1
		c-1.7-1-3.5-1.5-5.4-1.5c-1.4,0-2.7,0.3-3.9,0.8c-1.2,0.6-2.2,1.4-3,2.4c-0.8,1-1.5,2.2-2,3.6c-0.5,1.4-0.7,2.9-0.7,4.6
		c0,1.7,0.2,3.2,0.7,4.6s1.2,2.6,2,3.6c0.9,1,1.9,1.8,3.1,2.3c1.2,0.5,2.6,0.8,4.1,0.8c3.4,0,6.5-1.4,9.1-4.2h-7.5v-8.5h17.7v22.9
		H78V39.9z"/>
	<path class="st0" d="M113.1,43.8c-3.3,0-6.3-0.6-8.9-1.9c-2.7-1.3-5-2.9-6.9-4.9c-1.9-2-3.4-4.4-4.4-7c-1.1-2.6-1.6-5.3-1.6-8.1
		c0-2.8,0.5-5.6,1.6-8.2c1.1-2.6,2.6-4.9,4.6-6.9c2-2,4.3-3.6,7-4.8s5.6-1.8,8.8-1.8c3.3,0,6.3,0.6,8.9,1.9c2.7,1.3,5,2.9,6.9,5
		c1.9,2.1,3.4,4.4,4.4,7s1.5,5.3,1.5,8.1c0,2.8-0.5,5.6-1.6,8.2c-1.1,2.6-2.6,4.9-4.5,6.9c-1.9,2-4.3,3.6-6.9,4.8
		C119.2,43.2,116.3,43.8,113.1,43.8z M103.3,22c0,1.5,0.2,2.9,0.6,4.2s1,2.6,1.8,3.6c0.8,1.1,1.8,1.9,3.1,2.6c1.2,0.6,2.7,1,4.4,1
		s3.2-0.3,4.4-1c1.3-0.7,2.3-1.5,3.1-2.6c0.8-1.1,1.4-2.3,1.8-3.7c0.4-1.4,0.6-2.8,0.6-4.2c0-1.5-0.2-2.9-0.6-4.2s-1-2.5-1.9-3.6
		c-0.8-1-1.9-1.9-3.1-2.5c-1.2-0.6-2.7-0.9-4.3-0.9c-1.7,0-3.2,0.3-4.4,1c-1.2,0.6-2.3,1.5-3.1,2.6c-0.8,1.1-1.4,2.3-1.8,3.6
		C103.5,19.2,103.3,20.6,103.3,22z"/>
	<path class="st0" d="M151.9,22.3v21.2h-11.8V0.4h9.2l17.3,21.9V0.4h11.8v43.1H169L151.9,22.3z"/>
	<path class="st0" d="M197.7,22.3v21.2h-11.8V0.4h9.2l17.3,21.9V0.4h11.8v43.1h-9.4L197.7,22.3z"/>
	<path class="st0" d="M242.8,0.4h10.8l14.9,43.1h-12l-2.6-8.4h-11.5l-2.5,8.4h-12.1L242.8,0.4z M252,27.1l-3.8-13.4l-4,13.4H252z"/>
	<path class="st0" d="M276.5,0.4l7.7,18.6L292,0.4h12.9L290,29.2v14.3h-11.8V29.1L263.6,0.4H276.5z"/>
	<path class="st0" d="M314.9,0.4h10.8l14.9,43.1h-12L326,35h-11.5l-2.5,8.4h-12.1L314.9,0.4z M324.2,27.1l-3.8-13.4l-4,13.4H324.2z"
		/>
	<path class="st0" d="M375.5,43.8c-3.3,0-6.3-0.6-8.9-1.9c-2.7-1.3-5-2.9-6.9-4.9s-3.4-4.4-4.4-7c-1.1-2.6-1.6-5.3-1.6-8.1
		c0-2.8,0.5-5.6,1.6-8.2c1.1-2.6,2.6-4.9,4.6-6.9c2-2,4.3-3.6,7-4.8c2.7-1.2,5.6-1.8,8.8-1.8c3.3,0,6.3,0.6,8.9,1.9
		c2.7,1.3,5,2.9,6.9,5c1.9,2.1,3.4,4.4,4.4,7c1,2.6,1.5,5.3,1.5,8.1c0,2.8-0.5,5.6-1.6,8.2c-1.1,2.6-2.6,4.9-4.5,6.9
		c-1.9,2-4.3,3.6-6.9,4.8C381.6,43.2,378.7,43.8,375.5,43.8z M365.7,22c0,1.5,0.2,2.9,0.6,4.2s1,2.6,1.8,3.6
		c0.8,1.1,1.8,1.9,3.1,2.6s2.7,1,4.4,1c1.7,0,3.2-0.3,4.4-1c1.3-0.7,2.3-1.5,3.1-2.6c0.8-1.1,1.4-2.3,1.8-3.7s0.6-2.8,0.6-4.2
		c0-1.5-0.2-2.9-0.6-4.2s-1-2.5-1.9-3.6c-0.8-1-1.9-1.9-3.1-2.5c-1.2-0.6-2.7-0.9-4.3-0.9c-1.7,0-3.2,0.3-4.4,1
		c-1.2,0.6-2.3,1.5-3.1,2.6c-0.8,1.1-1.4,2.3-1.8,3.6S365.7,20.6,365.7,22z"/>
	<path class="st0" d="M428.2,14.4c-1.2-0.7-2.5-1.4-3.8-1.9c-1.1-0.5-2.3-0.9-3.7-1.4c-1.4-0.4-2.7-0.6-4-0.6
		c-1.1,0-1.9,0.2-2.5,0.5c-0.6,0.3-0.9,0.9-0.9,1.6c0,0.6,0.2,1,0.5,1.4c0.4,0.4,0.9,0.7,1.6,1c0.7,0.3,1.5,0.6,2.5,0.9
		c1,0.3,2.1,0.6,3.4,1c2,0.6,3.8,1.3,5.4,2c1.6,0.7,3,1.6,4.1,2.6c1.1,1,2,2.2,2.6,3.6c0.6,1.4,0.9,3.1,0.9,5.2
		c0,2.6-0.5,4.8-1.4,6.5c-1,1.8-2.2,3.2-3.8,4.2c-1.6,1.1-3.3,1.8-5.3,2.3c-2,0.5-3.9,0.7-5.9,0.7c-1.6,0-3.2-0.1-4.9-0.4
		c-1.7-0.2-3.3-0.6-4.9-1c-1.6-0.4-3.2-1-4.7-1.6c-1.5-0.6-2.9-1.3-4.2-2.1l5.1-10.4c1.4,0.9,2.9,1.7,4.4,2.4
		c1.3,0.6,2.8,1.2,4.4,1.6c1.6,0.5,3.3,0.7,5,0.7c1.3,0,2.2-0.2,2.7-0.5c0.5-0.3,0.8-0.8,0.8-1.4c0-0.6-0.3-1.1-0.8-1.5
		c-0.5-0.4-1.2-0.8-2.1-1.1c-0.9-0.3-1.9-0.6-3.1-1c-1.2-0.3-2.4-0.7-3.7-1.2c-1.9-0.6-3.5-1.3-4.9-2.1c-1.4-0.7-2.5-1.6-3.4-2.6
		c-0.9-0.9-1.5-2-2-3.2c-0.4-1.2-0.6-2.6-0.6-4.2c0-2.4,0.4-4.5,1.3-6.3s2.1-3.3,3.6-4.6c1.5-1.2,3.2-2.1,5.1-2.8
		c1.9-0.6,4-0.9,6.1-0.9c1.6,0,3.1,0.2,4.6,0.5c1.5,0.3,2.9,0.7,4.3,1.2c1.4,0.5,2.7,1,3.9,1.5s2.3,1.1,3.3,1.5L428.2,14.4z"/>
	<path class="st0" d="M477.7,0.4v43.1h-11.8V26.6h-14.4v16.9h-11.8V0.4h11.8v15.9h14.4V0.4H477.7z"/>
	<path class="st0" d="M496.3,0.4h10.8L522,43.5h-12l-2.6-8.4h-11.5l-2.5,8.4h-12.1L496.3,0.4z M505.5,27.1l-3.8-13.4l-4,13.4H505.5z
		"/>
	<path class="st0" d="M553.1,39.9c-3.1,2.6-6.6,3.9-10.6,3.9c-2.8,0-5.5-0.5-8-1.5c-2.5-1-4.8-2.4-6.7-4.3s-3.4-4.2-4.5-7
		c-1.1-2.8-1.7-5.9-1.7-9.4c0-3,0.6-5.9,1.7-8.5c1.1-2.6,2.7-4.9,4.7-6.8c2-1.9,4.3-3.4,7-4.6c2.7-1.1,5.6-1.7,8.7-1.7
		c1.9,0,3.8,0.2,5.6,0.6c1.8,0.4,3.4,1.1,4.9,1.9c1.5,0.8,2.9,1.8,4.1,3s2.2,2.5,3,3.9l-8.8,6.7c-0.8-1.7-2.1-3.1-3.8-4.1
		c-1.7-1-3.5-1.5-5.4-1.5c-1.4,0-2.7,0.3-3.9,0.8c-1.2,0.6-2.2,1.4-3,2.4c-0.8,1-1.5,2.2-2,3.6c-0.5,1.4-0.7,2.9-0.7,4.6
		c0,1.7,0.2,3.2,0.7,4.6c0.5,1.4,1.2,2.6,2,3.6c0.9,1,1.9,1.8,3.1,2.3c1.2,0.5,2.6,0.8,4.1,0.8c3.4,0,6.5-1.4,9.1-4.2h-7.5v-8.5
		h17.7v22.9h-9.8V39.9z"/>
	<path class="st0" d="M605.3,32.4c0,1.9-0.4,3.6-1.2,5c-0.8,1.4-1.9,2.5-3.3,3.4c-1.4,0.9-3.1,1.5-4.9,2c-1.9,0.4-3.9,0.6-6,0.6
		h-21.2V0.4h25c1.5,0,2.9,0.3,4.1,1c1.2,0.6,2.2,1.5,3.1,2.5c0.8,1,1.5,2.2,2,3.5c0.5,1.3,0.7,2.7,0.7,4c0,2-0.5,4-1.5,5.8
		c-1,1.8-2.6,3.2-4.6,4.2c2.5,0.7,4.4,2,5.9,3.8C604.6,27,605.3,29.4,605.3,32.4z M580.5,10.4v6.6h8.1c0.8,0,1.5-0.2,2.2-0.7
		c0.7-0.4,1-1.3,1-2.7c0-1.2-0.3-2-0.8-2.5s-1.2-0.8-2-0.8H580.5z M593.3,30c0-1.1-0.3-1.9-0.8-2.6c-0.6-0.7-1.3-1.1-2.2-1.1h-9.8
		v7.2h9.3c1,0,1.8-0.3,2.5-0.9C593,32,593.3,31.1,593.3,30z"/>
	<path class="st0" d="M641.3,33.1v10.3h-30.7V0.4h30.2v10.3h-18.3v6.1H638v9.6h-15.7v6.8H641.3z"/>
	<path class="st0" d="M679.4,43.5V20.8l-7.2,16h-6.3l-7.2-16v22.7h-11.8V0.4h12.9l9.3,20.3l9.3-20.3h12.9v43.1H679.4z"/>
	<path class="st0" d="M698.6,43.5V0.4h11.8v43.1H698.6z"/>
</g>
</svg>
